<svg xmlns="http://www.w3.org/2000/svg" width="148" height="48" viewBox="0 0 148 48" fill="none"><path d="M56.233 25.4786C56.2366 23.8866 55.7476 22.3325 54.8333 21.0293C53.919 19.7261 52.624 18.7376 51.1258 18.1991C51.433 16.5951 51.3827 14.9431 50.9786 13.3607C50.5745 11.7783 49.8264 10.3045 48.7878 9.04417C47.7491 7.78384 46.4453 6.768 44.9693 6.06899C43.4933 5.36998 41.8813 5.00499 40.2482 5.00001C38.4932 4.99791 36.7629 5.41334 35.2002 6.212C33.6375 7.01066 32.2872 8.16962 31.2608 9.59318C30.39 8.92057 29.348 8.50551 28.2532 8.39509C27.1584 8.28468 26.0546 8.48333 25.067 8.9685C24.0794 9.45367 23.2475 10.2059 22.6658 11.14C22.0841 12.074 21.7759 13.1523 21.776 14.2527C21.7784 14.9539 21.9019 15.6495 22.1408 16.3088C20.6375 16.8466 19.3369 17.8355 18.4167 19.1404C17.4966 20.4452 17.0018 22.0024 17 23.599C16.9982 25.1956 17.4894 26.7539 18.4066 28.0608C19.3238 29.3677 20.6221 30.3596 22.1242 30.9008C21.6416 33.3765 22.0202 35.9428 23.1972 38.1736C24.3742 40.4045 26.2788 42.1657 28.5947 43.1649C30.9107 44.164 33.4987 44.3411 35.9291 43.6667C38.3596 42.9922 40.4862 41.5068 41.9561 39.4571C42.9794 40.2704 44.2472 40.7144 45.5543 40.7173C47.1154 40.7168 48.6124 40.0965 49.7163 38.9927C50.8201 37.8888 51.4405 36.3918 51.4409 34.8307C51.4384 34.1295 51.315 33.4339 51.0761 32.7746C52.579 32.2323 53.8793 31.242 54.8015 29.9372C55.7237 28.6325 56.2234 27.0763 56.233 25.4786Z" fill="white"></path><path d="M32.4209 21.8304L41.0103 25.7437L49.666 18.1493C49.7939 17.5218 49.855 16.8826 49.8484 16.2424C49.8498 14.1753 49.1892 12.1621 47.9634 10.4978C46.7376 8.8334 45.011 7.60536 43.0366 6.99357C41.0622 6.38177 38.9437 6.41838 36.9916 7.09802C35.0394 7.77767 33.3563 9.06463 32.1887 10.7703L30.7461 18.2488L32.4209 21.8304Z" fill="#FED10A"></path><path d="M23.5325 30.9177C23.4046 31.5563 23.3434 32.2065 23.3501 32.8578C23.3526 34.9334 24.02 36.9536 25.2543 38.6223C26.4886 40.2911 28.225 41.5205 30.2089 42.1306C32.1929 42.7406 34.3201 42.6991 36.2787 42.0121C38.2373 41.3251 39.9244 40.0288 41.0927 38.3132L42.5187 30.8679L40.6118 27.2199L31.9892 23.29L23.5325 30.9177Z" fill="#24BBB1"></path><path d="M23.4828 16.0606L29.3694 17.4534L30.6628 10.771C29.8643 10.1596 28.8888 9.82396 27.8832 9.81465C26.8775 9.80534 25.896 10.1228 25.0863 10.7193C24.2766 11.3159 23.6825 12.1592 23.3933 13.1224C23.1042 14.0856 23.1356 15.1167 23.4828 16.0606Z" fill="#EF5098"></path><path d="M22.9698 17.4697C21.6962 17.8877 20.5834 18.6901 19.7847 19.7665C18.9859 20.8429 18.5404 22.1404 18.5095 23.4805C18.4786 24.8206 18.8638 26.1373 19.6121 27.2494C20.3604 28.3615 21.4349 29.2143 22.6879 29.6905L30.9456 22.2287L29.4367 18.9953L22.9698 17.4697Z" fill="#17A8E0"></path><path d="M42.5859 38.3134C43.385 38.9173 44.358 39.2467 45.3596 39.2523C46.3612 39.2579 47.3378 38.9395 48.1436 38.3445C48.9493 37.7495 49.5411 36.9098 49.8305 35.9509C50.1199 34.992 50.0914 33.9652 49.7493 33.0238L43.8793 31.6475L42.5859 38.3134Z" fill="#93C83E"></path><path d="M43.7802 30.1049L50.2471 31.6139C51.5207 31.1959 52.6334 30.3935 53.4322 29.3171C54.231 28.2407 54.6764 26.9432 54.7074 25.6031C54.7383 24.2631 54.3531 22.9464 53.6048 21.8342C52.8565 20.7221 51.782 19.8693 50.529 19.3931L42.0723 26.8051L43.7802 30.1049Z" fill="#0779A1"></path><path d="M71.8536 32.4428L72.6329 32.3599L72.6827 33.9517C70.9365 34.212 69.1749 34.356 67.4097 34.3829C65.4696 34.3829 64.0933 33.8191 63.2808 32.6915C62.4683 31.564 62.0703 29.8063 62.0703 27.4351C62.0703 22.6927 63.9551 20.3215 67.7247 20.3215C69.5487 20.3215 70.9084 20.8355 71.8039 21.847C72.6993 22.8585 73.147 24.4669 73.147 26.6392L73.0309 28.1813H64.1099C64.1099 29.6736 64.3752 30.7846 64.9224 31.4976C65.4696 32.2107 66.3982 32.5755 67.7413 32.5755C69.1135 32.6053 70.4862 32.561 71.8536 32.4428ZM71.124 26.5894C71.124 24.9312 70.8587 23.7539 70.3281 23.0741C69.7975 22.3942 68.9352 22.046 67.7413 22.046C66.5474 22.046 65.6354 22.4108 65.0385 23.1238C64.4415 23.8368 64.1265 24.9976 64.1099 26.5894H71.124ZM75.9659 34.1341V14.7334H77.9889V34.1341H75.9659ZM90.7735 24.6991V31.3484C90.7735 32.0283 92.4482 32.1609 92.4482 32.1609L92.3487 33.9517C90.9227 33.9517 89.7454 34.0678 89.0324 33.388C87.5021 34.0632 85.8465 34.4079 84.1739 34.3995C82.9303 34.3995 81.9851 34.0512 81.3384 33.3382C80.6917 32.6252 80.3601 31.6303 80.3601 30.3037C80.3601 28.9772 80.6917 28.0154 81.355 27.4019C82.0183 26.7884 83.0629 26.3904 84.489 26.2578L88.7339 25.8598V24.6991C88.7339 23.7871 88.5349 23.1238 88.137 22.7258C87.739 22.3279 87.1918 22.1289 86.5119 22.1289H81.1892V20.3381H86.3793C87.9048 20.3381 89.0158 20.6863 89.7122 21.3993C90.4087 22.1123 90.7735 23.2067 90.7735 24.6991ZM82.4494 30.2042C82.4494 31.8624 83.1292 32.6915 84.5055 32.6915C85.7366 32.6941 86.9591 32.4866 88.1204 32.078L88.7339 31.8624V27.4019L84.7377 27.7833C83.9252 27.8496 83.3448 28.0818 82.98 28.4797C82.6152 28.8777 82.4494 29.4581 82.4494 30.2042ZM98.683 22.1455C96.7264 22.1455 95.7314 22.8253 95.7314 24.2016C95.7314 24.8317 95.9636 25.2794 96.4113 25.5448C96.859 25.8101 97.8871 26.0754 99.4955 26.3573C101.104 26.6392 102.232 27.0205 102.895 27.5346C103.558 28.0486 103.89 28.9772 103.89 30.3701C103.89 31.7629 103.442 32.7744 102.547 33.4211C101.651 34.0678 100.358 34.3995 98.6333 34.3995C97.5223 34.3995 93.7914 33.9849 93.7914 33.9849L93.9074 32.2272C96.0465 32.4262 97.6052 32.592 98.6498 32.592C99.6945 32.592 100.49 32.4262 101.038 32.0946C101.585 31.7629 101.867 31.1992 101.867 30.4198C101.867 29.6405 101.635 29.1098 101.17 28.828C100.706 28.5461 99.6779 28.2808 98.0861 28.032C96.4942 27.7833 95.3666 27.4185 94.7034 26.921C94.0401 26.4236 93.7085 25.5282 93.7085 24.2182C93.7085 22.9082 94.1727 21.9299 95.1013 21.2998C96.0299 20.6697 97.1906 20.3546 98.5669 20.3546C99.6613 20.3546 103.475 20.6365 103.475 20.6365V22.4108C101.469 22.2947 99.8272 22.1455 98.683 22.1455ZM113.673 22.3776H109.378V28.8445C109.378 30.3867 109.494 31.4147 109.71 31.8956C109.925 32.3765 110.473 32.6252 111.318 32.6252L113.723 32.4594L113.855 34.1341C112.947 34.3025 112.027 34.4023 111.103 34.4326C109.693 34.4326 108.732 34.0844 108.184 33.4045C107.637 32.7247 107.372 31.4147 107.372 29.4912V22.3776H105.448V20.6199H107.372V16.4745H109.378V20.6034H113.673V22.3776ZM116.492 17.5523V15.2143H118.515V17.5689L116.492 17.5523ZM116.492 34.1341V20.6199H118.515V34.1341H116.492ZM127.303 20.3381C127.9 20.3381 128.912 20.4541 130.338 20.6697L130.984 20.7526L130.902 22.3942C129.845 22.2568 128.783 22.1737 127.718 22.1455C126.192 22.1455 125.148 22.5103 124.6 23.2399C124.053 23.9695 123.771 25.3292 123.771 27.3024C123.771 29.2757 124.02 30.652 124.534 31.4313C125.048 32.2107 126.109 32.592 127.734 32.592L130.918 32.3433L131.001 34.0181C129.326 34.2668 128.066 34.3995 127.237 34.3995C125.131 34.3995 123.672 33.8523 122.876 32.7744C122.08 31.6966 121.665 29.8726 121.665 27.3024C121.665 24.7322 122.097 22.9248 122.959 21.8968C123.821 20.8687 125.28 20.3381 127.303 20.3381Z" fill="black"></path></svg>